{"title":"Ultimate.Spider-Man.vs.the.Sinister.6.S04E01.HDTV.x264-W4F","uid":13640903,"size":151093736,"categoryP":"video","categoryS":"tv_shows","magnet":"?xt=urn:btih:2f33708b5ca9d6bb5cde182b5489835aca9bbff8&amp;dn=Ultimate.Spider-Man.vs.the.Sinister.6.S04E01.HDTV.x264-W4F&amp;tr=udp%3A%2F%2Ftracker.leechers-paradise.org%3A6969&amp;tr=udp%3A%2F%2Fzer0day.ch%3A1337&amp;tr=udp%3A%2F%2Fopen.demonii.com%3A1337&amp;tr=udp%3A%2F%2Ftracker.coppersurfer.tk%3A6969&amp;tr=udp%3A%2F%2Fexodus.desync.com%3A6969","seeders":0,"leechers":1,"uploader":"TheRival","files":4,"time":1456136419,"description":"Video\r\nID                                       : 1\r\nFormat                                   : AVC\r\nFormat/Info                              : Advanced Video Codec\r\nFormat profile                           :   \r\nFormat settings, CABAC                   : Yes\r\nFormat settings, ReFrames                : 10 frames\r\nCodec ID                                 : avc1\r\nCodec ID/Info                            : Advanced Video Coding\r\nDuration                                 : 22mn 2s\r\nBit rate                                 : 728 Kbps\r\nMaximum bit rate                         : 4 685 Kbps\r\nWidth                                    : 720 pixels\r\nHeight                                   : 404 pixels\r\nDisplay aspect ratio                     : 16:9\r\nFrame rate mode                          : Constant\r\nFrame rate                               : 23.976 (24000/1001) fps\r\nColor space                              : YUV\r\nChroma subsampling                       : 4:2:0\r\nBit depth                                : 8 bits\r\nScan type                                : Progressive\r\nBits/(Pixel*Frame)                       : 0.104\r\nStream size                              : 115 MiB (84%)\r\nWriting library                          : x264 core 148 r2665 a01e339\r\nEncoding settings                        : cabac=1 / ref=10 / deblock=1:1:1 / analyse=0x3:0x113 / me=umh / subme=8 / psy=1 / psy_rd=0.40:0.00 / mixed_ref=1 / me_range=16 / chroma_me=1 / trellis=1 / 8x8dct=1 / cqm=0 / deadzone=21,11 / fast_pskip=1 / chroma_qp_offset=-2 / threads=12 / lookahead_threads=3 / sliced_threads=0 / nr=0 / decimate=1 / interlaced=0 / bluray_compat=0 / constrained_intra=0 / bframes=5 / b_pyramid=2 / b_adapt=2 / b_bias=0 / direct=3 / weightb=1 / open_gop=0 / weightp=2 / keyint=250 / keyint_min=25 / scenecut=40 / intra_refresh=0 / rc_lookahead=50 / rc=crf / mbtree=1 / crf=19.0 / qcomp=0.60 / qpmin=0 / qpmax=69 / qpstep=4 / ip_ratio=1.40 / aq=1:0.60\r\nEncoded date                             : UTC 2016-02-22 05:09:27\r\nTagged date                              : UTC 2016-02-22 05:09:47\r\nColor range                              : Limited\r\nMatrix coefficients                      : BT.709\r\n\r\nAudio\r\nID                                       : 2\r\nFormat                                   : AAC\r\nFormat/Info                              : Advanced Audio Codec\r\nFormat profile                           : LC\r\nCodec ID                                 : 40\r\nDuration                                 : 22mn 3s\r\nBit rate mode                            : Variable\r\nBit rate                                 : 132 Kbps\r\nMaximum bit rate                         : 179 Kbps\r\nChannel(s)                               : 2 channels\r\nChannel positions                        : Front: L R\r\nSampling rate                            : 48.0 KHz\r\nFrame rate                               : 46.875 fps (1024 spf)\r\nCompression mode                         : Lossy\r\nStream size                              : 21.1 MiB (15%)\r\nLanguage                                 : English\r\nEncoded date                             : UTC 2016-02-22 05:09:45\r\nTagged date                              : UTC 2016-02-22 05:09:47\r\n\r\nText\r\nID                                       : 3\r\nFormat                                   : Timed Text\r\nCodec ID                                 : tx3g\r\nDuration                                 : 21mn 28s\r\nBit rate mode                            : Variable\r\nBit rate                                 : 113 bps\r\nStream size                              : 17.8 KiB (0%)\r\nLanguage                                 : English\r\nForced                                   : No\r\nEncoded date                             : UTC 2016-02-22 05:09:47\r\nTagged date                              : UTC 2016-02-22 05:09:47","torrent":{"xt":"urn:btih:2f33708b5ca9d6bb5cde182b5489835aca9bbff8","amp;dn":"Ultimate.Spider-Man.vs.the.Sinister.6.S04E01.HDTV.x264-W4F","amp;tr":["udp%3A%2F%2Ftracker.leechers-paradise.org%3A6969","udp%3A%2F%2Fzer0day.ch%3A1337","udp%3A%2F%2Fopen.demonii.com%3A1337","udp%3A%2F%2Ftracker.coppersurfer.tk%3A6969","udp%3A%2F%2Fexodus.desync.com%3A6969"],"infoHash":"2f33708b5ca9d6bb5cde182b5489835aca9bbff8","infoHashBuffer":{"type":"Buffer","data":[47,51,112,139,92,169,214,187,92,222,24,43,84,137,131,90,202,155,191,248]},"announce":[],"urlList":[]}}